<svg xmlns="http://www.w3.org/2000/svg" width="900" height="1400" viewBox="0 0 900 1400">
  <defs>
    <linearGradient id="bg" x1="0" y1="0" x2="1" y2="1">
      <stop offset="0" stop-color="#07060c"/>
      <stop offset="0.55" stop-color="#120a1d"/>
      <stop offset="1" stop-color="#05020a"/>
    </linearGradient>
    <radialGradient id="gl" cx="50%" cy="35%" r="70%">
      <stop offset="0" stop-color="#a855f7" stop-opacity="0.22"/>
      <stop offset="0.45" stop-color="#3b82f6" stop-opacity="0.12"/>
      <stop offset="1" stop-color="#000" stop-opacity="0"/>
    </radialGradient>
    <filter id="soft" x="-20%" y="-20%" width="140%" height="140%">
      <feGaussianBlur stdDeviation="10" result="b"/>
      <feMerge>
        <feMergeNode in="b"/>
        <feMergeNode in="SourceGraphic"/>
      </feMerge>
    </filter>
    <pattern id="stars" width="120" height="120" patternUnits="userSpaceOnUse">
      <circle cx="18" cy="22" r="1.6" fill="#fff" fill-opacity="0.20"/>
      <circle cx="96" cy="40" r="1.2" fill="#fff" fill-opacity="0.16"/>
      <circle cx="72" cy="98" r="1.4" fill="#fff" fill-opacity="0.18"/>
      <circle cx="34" cy="86" r="1.0" fill="#fff" fill-opacity="0.14"/>
      <circle cx="56" cy="52" r="0.9" fill="#fff" fill-opacity="0.12"/>
    </pattern>
  </defs>

  <rect width="900" height="1400" rx="48" fill="url(#bg)"/>
  <rect width="900" height="1400" rx="48" fill="url(#gl)"/>
  <rect x="52" y="52" width="796" height="1296" rx="40" fill="none" stroke="#ffffff" stroke-opacity="0.14" stroke-width="2"/>
  <rect x="92" y="92" width="716" height="1216" rx="34" fill="url(#stars)" opacity="0.9"/>

  <g filter="url(#soft)" opacity="0.9">
    <circle cx="450" cy="560" r="220" fill="none" stroke="#e9d5ff" stroke-opacity="0.28" stroke-width="2"/>
    <circle cx="450" cy="560" r="150" fill="none" stroke="#f5d0fe" stroke-opacity="0.22" stroke-width="2"/>
    <path d="M450 370 L495 505 L640 505 L525 590 L570 730 L450 650 L330 730 L375 590 L260 505 L405 505 Z"
          fill="#f5d0fe" fill-opacity="0.08" stroke="#f5d0fe" stroke-opacity="0.35" stroke-width="2"/>
    <path d="M450 440 C530 440, 595 505, 595 585 C595 665, 530 730, 450 730 C370 730, 305 665, 305 585 C305 505, 370 440, 450 440 Z"
          fill="none" stroke="#60a5fa" stroke-opacity="0.18" stroke-width="2"/>
  </g>

  <text x="450" y="1188" text-anchor="middle" font-family="ui-serif, Georgia, serif"
        font-size="56" letter-spacing="10" fill="#ffffff" fill-opacity="0.82">TAROT</text>
  <text x="450" y="1266" text-anchor="middle" font-family="ui-sans-serif, system-ui, -apple-system, Segoe UI, Roboto, Arial"
        font-size="20" letter-spacing="9" fill="#ffffff" fill-opacity="0.46">РУБАШКА</text>
</svg>


