<svg xmlns="http://www.w3.org/2000/svg" width="900" height="1400" viewBox="0 0 900 1400">
  <defs>
    <linearGradient id="g" x1="0" y1="0" x2="1" y2="1">
      <stop offset="0" stop-color="#0b1025"/>
      <stop offset="0.55" stop-color="#1d0b2a"/>
      <stop offset="1" stop-color="#05020a"/>
    </linearGradient>
    <radialGradient id="r" cx="35%" cy="25%" r="65%">
      <stop offset="0" stop-color="#a855f7" stop-opacity="0.55"/>
      <stop offset="0.5" stop-color="#3b82f6" stop-opacity="0.22"/>
      <stop offset="1" stop-color="#000" stop-opacity="0"/>
    </radialGradient>
    <filter id="glow" x="-20%" y="-20%" width="140%" height="140%">
      <feGaussianBlur stdDeviation="6" result="b"/>
      <feMerge>
        <feMergeNode in="b"/>
        <feMergeNode in="SourceGraphic"/>
      </feMerge>
    </filter>
  </defs>
  <rect x="0" y="0" width="900" height="1400" rx="48" fill="url(#g)"/>
  <rect x="0" y="0" width="900" height="1400" rx="48" fill="url(#r)"/>
  <rect x="52" y="52" width="796" height="1296" rx="40" fill="none" stroke="#ffffff" stroke-opacity="0.14" stroke-width="2"/>

  <g filter="url(#glow)" opacity="0.92">
    <circle cx="450" cy="560" r="180" fill="none" stroke="#e9d5ff" stroke-opacity="0.55" stroke-width="2"/>
    <path d="M450 350 L494 500 L650 500 L522 590 L570 740 L450 650 L330 740 L378 590 L250 500 L406 500 Z"
          fill="#f5d0fe" fill-opacity="0.16" stroke="#f5d0fe" stroke-opacity="0.55" stroke-width="2"/>
    <circle cx="450" cy="560" r="10" fill="#f5d0fe" fill-opacity="0.9"/>
  </g>

  <g fill="#ffffff" fill-opacity="0.22">
    <circle cx="170" cy="320" r="3"/><circle cx="220" cy="260" r="2"/><circle cx="720" cy="310" r="3"/>
    <circle cx="710" cy="720" r="2"/><circle cx="610" cy="820" r="2"/><circle cx="310" cy="860" r="2"/>
    <circle cx="200" cy="760" r="2"/><circle cx="760" cy="520" r="2"/><circle cx="520" cy="260" r="2"/>
  </g>

  <text x="450" y="1220" text-anchor="middle" font-family="ui-serif, Georgia, serif"
        font-size="54" letter-spacing="6" fill="#ffffff" fill-opacity="0.86">ЗВЕЗДА</text>
  <text x="450" y="1282" text-anchor="middle" font-family="ui-sans-serif, system-ui, -apple-system, Segoe UI, Roboto, Arial"
        font-size="22" letter-spacing="8" fill="#ffffff" fill-opacity="0.52">2026</text>
</svg>


