<svg xmlns="http://www.w3.org/2000/svg" width="900" height="1400" viewBox="0 0 900 1400">
  <defs>
    <linearGradient id="g" x1="0" y1="0" x2="1" y2="1">
      <stop offset="0" stop-color="#070a18"/>
      <stop offset="0.6" stop-color="#230917"/>
      <stop offset="1" stop-color="#04020a"/>
    </linearGradient>
    <radialGradient id="r" cx="70%" cy="30%" r="60%">
      <stop offset="0" stop-color="#f472b6" stop-opacity="0.35"/>
      <stop offset="0.5" stop-color="#a855f7" stop-opacity="0.18"/>
      <stop offset="1" stop-color="#000" stop-opacity="0"/>
    </radialGradient>
    <filter id="glow" x="-20%" y="-20%" width="140%" height="140%">
      <feGaussianBlur stdDeviation="6" result="b"/>
      <feMerge>
        <feMergeNode in="b"/>
        <feMergeNode in="SourceGraphic"/>
      </feMerge>
    </filter>
  </defs>
  <rect width="900" height="1400" rx="48" fill="url(#g)"/>
  <rect width="900" height="1400" rx="48" fill="url(#r)"/>
  <rect x="52" y="52" width="796" height="1296" rx="40" fill="none" stroke="#ffffff" stroke-opacity="0.14" stroke-width="2"/>

  <g filter="url(#glow)" opacity="0.92">
    <circle cx="450" cy="560" r="210" fill="none" stroke="#f5d0fe" stroke-opacity="0.45" stroke-width="2"/>
    <circle cx="450" cy="560" r="150" fill="none" stroke="#fbcfe8" stroke-opacity="0.35" stroke-width="2"/>
    <circle cx="450" cy="560" r="36" fill="#f5d0fe" fill-opacity="0.18" stroke="#f5d0fe" stroke-opacity="0.6" stroke-width="2"/>
    <g stroke="#e9d5ff" stroke-opacity="0.55" stroke-width="2">
      <line x1="450" y1="350" x2="450" y2="770"/>
      <line x1="240" y1="560" x2="660" y2="560"/>
      <line x1="305" y1="415" x2="595" y2="705"/>
      <line x1="595" y1="415" x2="305" y2="705"/>
    </g>
    <g fill="#ffffff" fill-opacity="0.22">
      <circle cx="450" cy="350" r="5"/><circle cx="660" cy="560" r="5"/><circle cx="450" cy="770" r="5"/><circle cx="240" cy="560" r="5"/>
      <circle cx="595" cy="415" r="4"/><circle cx="595" cy="705" r="4"/><circle cx="305" cy="705" r="4"/><circle cx="305" cy="415" r="4"/>
    </g>
  </g>

  <text x="450" y="1220" text-anchor="middle" font-family="ui-serif, Georgia, serif"
        font-size="50" letter-spacing="5" fill="#ffffff" fill-opacity="0.86">КОЛЕСО</text>
  <text x="450" y="1282" text-anchor="middle" font-family="ui-sans-serif, system-ui, -apple-system, Segoe UI, Roboto, Arial"
        font-size="22" letter-spacing="8" fill="#ffffff" fill-opacity="0.52">ФОРТУНЫ</text>
</svg>




