<svg xmlns="http://www.w3.org/2000/svg" width="900" height="1400" viewBox="0 0 900 1400">
  <defs>
    <linearGradient id="g" x1="0" y1="0" x2="1" y2="1">
      <stop offset="0" stop-color="#070913"/>
      <stop offset="0.55" stop-color="#121022"/>
      <stop offset="1" stop-color="#05020a"/>
    </linearGradient>
    <radialGradient id="r" cx="35%" cy="30%" r="65%">
      <stop offset="0" stop-color="#22c55e" stop-opacity="0.18"/>
      <stop offset="0.5" stop-color="#a855f7" stop-opacity="0.16"/>
      <stop offset="1" stop-color="#000" stop-opacity="0"/>
    </radialGradient>
    <filter id="glow" x="-20%" y="-20%" width="140%" height="140%">
      <feGaussianBlur stdDeviation="6" result="b"/>
      <feMerge>
        <feMergeNode in="b"/>
        <feMergeNode in="SourceGraphic"/>
      </feMerge>
    </filter>
  </defs>
  <rect width="900" height="1400" rx="48" fill="url(#g)"/>
  <rect width="900" height="1400" rx="48" fill="url(#r)"/>
  <rect x="52" y="52" width="796" height="1296" rx="40" fill="none" stroke="#ffffff" stroke-opacity="0.14" stroke-width="2"/>

  <g filter="url(#glow)" opacity="0.92">
    <path d="M310 760 C320 640, 390 520, 450 520 C510 520, 580 640, 590 760"
          fill="none" stroke="#f5d0fe" stroke-opacity="0.55" stroke-width="3" stroke-linecap="round"/>
    <path d="M340 740 C350 650, 395 590, 450 590 C505 590, 550 650, 560 740"
          fill="none" stroke="#e9d5ff" stroke-opacity="0.35" stroke-width="3" stroke-linecap="round"/>

    <circle cx="450" cy="515" r="88" fill="#ffffff" fill-opacity="0.06" stroke="#f5d0fe" stroke-opacity="0.45" stroke-width="2"/>
    <path d="M450 430 L468 492 L535 492 L480 530 L500 594 L450 555 L400 594 L420 530 L365 492 L432 492 Z"
          fill="#fbcfe8" fill-opacity="0.14" stroke="#fbcfe8" stroke-opacity="0.5" stroke-width="2"/>

    <path d="M310 760 C320 830, 380 890, 450 890 C520 890, 580 830, 590 760"
          fill="none" stroke="#22c55e" stroke-opacity="0.22" stroke-width="3" stroke-linecap="round"/>
  </g>

  <text x="450" y="1220" text-anchor="middle" font-family="ui-serif, Georgia, serif"
        font-size="54" letter-spacing="6" fill="#ffffff" fill-opacity="0.86">СИЛА</text>
  <text x="450" y="1282" text-anchor="middle" font-family="ui-sans-serif, system-ui, -apple-system, Segoe UI, Roboto, Arial"
        font-size="22" letter-spacing="8" fill="#ffffff" fill-opacity="0.52">СТОЙКОСТЬ</text>
</svg>




