<svg xmlns="http://www.w3.org/2000/svg" width="900" height="1400" viewBox="0 0 900 1400">
  <defs>
    <linearGradient id="g" x1="0" y1="0" x2="1" y2="1">
      <stop offset="0" stop-color="#070913"/>
      <stop offset="0.55" stop-color="#1a1020"/>
      <stop offset="1" stop-color="#05020a"/>
    </linearGradient>
    <radialGradient id="r" cx="50%" cy="30%" r="70%">
      <stop offset="0" stop-color="#fbbf24" stop-opacity="0.25"/>
      <stop offset="0.45" stop-color="#f472b6" stop-opacity="0.14"/>
      <stop offset="1" stop-color="#000" stop-opacity="0"/>
    </radialGradient>
    <filter id="glow" x="-20%" y="-20%" width="140%" height="140%">
      <feGaussianBlur stdDeviation="7" result="b"/>
      <feMerge>
        <feMergeNode in="b"/>
        <feMergeNode in="SourceGraphic"/>
      </feMerge>
    </filter>
  </defs>
  <rect width="900" height="1400" rx="48" fill="url(#g)"/>
  <rect width="900" height="1400" rx="48" fill="url(#r)"/>
  <rect x="52" y="52" width="796" height="1296" rx="40" fill="none" stroke="#ffffff" stroke-opacity="0.14" stroke-width="2"/>

  <g filter="url(#glow)" opacity="0.92">
    <circle cx="450" cy="520" r="128" fill="#fde68a" fill-opacity="0.18" stroke="#fde68a" stroke-opacity="0.55" stroke-width="2"/>
    <circle cx="450" cy="520" r="64" fill="#fbbf24" fill-opacity="0.12" stroke="#fbbf24" stroke-opacity="0.55" stroke-width="2"/>
    <g stroke="#fde68a" stroke-opacity="0.45" stroke-width="3" stroke-linecap="round">
      <line x1="450" y1="340" x2="450" y2="260"/>
      <line x1="450" y1="780" x2="450" y2="700"/>
      <line x1="270" y1="520" x2="190" y2="520"/>
      <line x1="710" y1="520" x2="630" y2="520"/>
      <line x1="320" y1="390" x2="260" y2="330"/>
      <line x1="640" y1="390" x2="700" y2="330"/>
      <line x1="320" y1="650" x2="260" y2="710"/>
      <line x1="640" y1="650" x2="700" y2="710"/>
    </g>
  </g>

  <path d="M260 860 C320 780, 380 760, 450 760 C520 760, 580 780, 640 860"
        fill="none" stroke="#ffffff" stroke-opacity="0.16" stroke-width="3" stroke-linecap="round"/>
  <path d="M300 900 C350 835, 395 815, 450 815 C505 815, 550 835, 600 900"
        fill="none" stroke="#ffffff" stroke-opacity="0.12" stroke-width="3" stroke-linecap="round"/>

  <text x="450" y="1220" text-anchor="middle" font-family="ui-serif, Georgia, serif"
        font-size="54" letter-spacing="6" fill="#ffffff" fill-opacity="0.86">СОЛНЦЕ</text>
  <text x="450" y="1282" text-anchor="middle" font-family="ui-sans-serif, system-ui, -apple-system, Segoe UI, Roboto, Arial"
        font-size="22" letter-spacing="8" fill="#ffffff" fill-opacity="0.52">ЯСНОСТЬ</text>
</svg>


