<svg xmlns="http://www.w3.org/2000/svg" width="900" height="1400" viewBox="0 0 900 1400">
  <defs>
    <linearGradient id="g" x1="0" y1="0" x2="1" y2="1">
      <stop offset="0" stop-color="#060716"/>
      <stop offset="0.55" stop-color="#0f0a1b"/>
      <stop offset="1" stop-color="#05020a"/>
    </linearGradient>
    <radialGradient id="r" cx="70%" cy="22%" r="70%">
      <stop offset="0" stop-color="#60a5fa" stop-opacity="0.22"/>
      <stop offset="0.55" stop-color="#a855f7" stop-opacity="0.12"/>
      <stop offset="1" stop-color="#000" stop-opacity="0"/>
    </radialGradient>
    <filter id="glow" x="-20%" y="-20%" width="140%" height="140%">
      <feGaussianBlur stdDeviation="7" result="b"/>
      <feMerge>
        <feMergeNode in="b"/>
        <feMergeNode in="SourceGraphic"/>
      </feMerge>
    </filter>
  </defs>
  <rect width="900" height="1400" rx="48" fill="url(#g)"/>
  <rect width="900" height="1400" rx="48" fill="url(#r)"/>
  <rect x="52" y="52" width="796" height="1296" rx="40" fill="none" stroke="#ffffff" stroke-opacity="0.14" stroke-width="2"/>

  <g filter="url(#glow)" opacity="0.92">
    <path d="M560 430 A140 140 0 1 0 560 710 A95 95 0 1 1 560 430 Z"
          fill="#bfdbfe" fill-opacity="0.16" stroke="#bfdbfe" stroke-opacity="0.55" stroke-width="2"/>
    <circle cx="360" cy="520" r="5" fill="#ffffff" fill-opacity="0.22"/>
    <circle cx="310" cy="460" r="3" fill="#ffffff" fill-opacity="0.18"/>
    <circle cx="680" cy="520" r="3" fill="#ffffff" fill-opacity="0.18"/>
  </g>

  <path d="M230 860 C310 770, 380 760, 450 770 C520 780, 590 770, 670 860"
        fill="none" stroke="#60a5fa" stroke-opacity="0.18" stroke-width="3" stroke-linecap="round"/>
  <path d="M260 910 C330 840, 390 835, 450 842 C510 850, 570 840, 640 910"
        fill="none" stroke="#ffffff" stroke-opacity="0.12" stroke-width="3" stroke-linecap="round"/>

  <text x="450" y="1220" text-anchor="middle" font-family="ui-serif, Georgia, serif"
        font-size="54" letter-spacing="6" fill="#ffffff" fill-opacity="0.86">ЛУНА</text>
  <text x="450" y="1282" text-anchor="middle" font-family="ui-sans-serif, system-ui, -apple-system, Segoe UI, Roboto, Arial"
        font-size="22" letter-spacing="8" fill="#ffffff" fill-opacity="0.52">ИНТУИЦИЯ</text>
</svg>




