<svg width="1513" height="1060" viewBox="0 0 1513 1060" fill="none" xmlns="http://www.w3.org/2000/svg">
<path d="M6.39382 993.368L65.6743 1001.8L39.086 1043.88L75.5468 1016.5L83.3835 1050.18L91.8327 1018.81L123.573 1033.96L108.017 1007.82L160.219 1005.28L128.389 987.932L136.074 953.608L97.9485 975.819L98.7658 942.04L85.5713 974.058L46.5612 939.931L70.9701 987.932L6.39382 993.368Z" fill="white"/>
<path d="M1484.32 276.728L1437.2 239.785L1481.27 216.64L1436 222.121L1446.05 189.035L1423.05 211.972L1403.14 182.983L1403.54 213.398L1357.06 189.5L1375.96 220.438L1352.14 246.321L1396.26 246.149L1378.66 274.994L1406.1 253.862L1422.82 302.923L1425.68 249.148L1484.32 276.728Z" fill="white"/>
<path d="M44.8672 520.791L95.2882 488.496L102.6 537.729L112.36 493.189L140.277 513.596L126.211 484.317L160.148 475.082L131.303 465.428L169.198 429.435L133.759 437.061L117.183 406.039L102.788 447.748L81.3641 421.619L92.2608 454.491L40.4312 454.089L90.2508 474.532L44.8672 520.791Z" fill="white"/>
<path d="M1428.53 1032.21L1385.29 1012.41L1382.13 1053.87L1356.22 1010.33L1319.71 1008.28L1343.98 972.159L1308.96 916.658L1366.91 946.518L1388.26 895.476L1390.17 944.231L1421.57 923.637L1413.67 957.1L1441.29 959.075L1416.71 991.613L1428.53 1032.21Z" fill="white"/>
<path d="M142.808 730.215C137.117 735.028 123.922 739.894 111.774 734.261C90.6973 724.489 94.5752 700.418 106.876 702.193C113.301 703.12 113.657 714.112 103.593 719.532C93.8283 724.79 75.8136 723.744 65.7803 711.03C51.0988 692.426 68.6723 667.906 85.6608 660.918" stroke="white" stroke-width="7.13979" stroke-linecap="round" stroke-linejoin="round"/>
<path d="M1341.82 480.52C1349.15 479.198 1363.01 481.581 1370.72 492.533C1384.08 511.535 1368.69 530.442 1358.93 522.755C1353.83 518.739 1359.01 509.042 1370.44 509.38C1381.52 509.709 1396.6 519.622 1398.93 535.649C1402.35 559.101 1374.87 571.55 1356.66 569.107" stroke="white" stroke-width="7.13979" stroke-linecap="round" stroke-linejoin="round"/>
<path d="M221.876 637L227.466 647.345L234.454 640.448L231.659 653.552L241.442 659.069H229.912L223.973 687L221.876 659.069H212.442L221.876 653.552V637Z" fill="white"/>
<path d="M1124.39 497.085L1124.72 485.331L1115.22 487.809L1124.19 477.859L1118.48 468.189L1128.46 473.954L1147.57 452.735L1135.42 477.972L1143.59 482.689L1132.66 482.75L1124.39 497.085Z" fill="white"/>
<path d="M70.5906 109.769L81.5772 113.959L82.3716 104.173L88.8047 115.926L99.818 113.723L91.0814 121.247L104.808 146.287L84.9922 126.491L77.844 132.647L81.3918 122.31L70.5906 109.769Z" fill="white"/>
<path d="M1019.42 928.923L1023.41 899L1029.56 928.923L1047.68 922.867L1036.09 937.116L1061.44 944.241H1034.27L1041.16 964.545L1027.75 951.365L1019.42 982V951.365L998.774 959.914L1010 944.241L990.442 937.116H1013.26V920.017L1019.42 928.923Z" fill="white"/>
<path d="M1395.37 751.322L1388.7 733.998L1387.24 753.321L1376.84 755.879L1388.84 759.824L1387.32 774.681L1395.82 762.938L1406.31 778.978L1401.51 759.468L1411.59 756.989L1402.35 753.055L1403.46 740.715L1395.37 751.322Z" fill="white"/>
<path d="M128.386 925L120.301 892.719L102.374 901.744L117.137 883.347L100.616 872.24L120.301 874.323V841L131.198 872.24L149.477 860.785L136.119 879.876L158.616 887.513L136.119 889.942L144.556 901.744L131.198 892.719L128.386 925Z" fill="white"/>
<path d="M1344.49 274.94L1335.35 306.938L1355.39 308.086L1333.41 316.636L1342.16 334.516L1326.16 322.87L1309.49 351.728L1315.68 319.225L1294.12 320.006L1315.23 310.151L1299.57 292.29L1320.27 301.434L1318.86 286.995L1325.92 301.49L1344.49 274.94Z" fill="white"/>
<path d="M102.689 268.482L75.4973 249.298L67.8027 267.835L66.9842 244.261L47.2173 246.626L63.492 235.359L41.7468 210.109L70.3899 226.669L76.7652 206.062L79.1021 229.244L101.132 220.35L85.671 236.872L99.7649 240.309L83.7542 242.187L102.689 268.482Z" fill="white"/>
<circle cx="76.4424" cy="770" r="4" fill="white"/>
<circle cx="1372.91" cy="427.464" r="4" transform="rotate(-150 1372.91 427.464)" fill="white"/>
<ellipse cx="4" cy="3.5" rx="4" ry="3.5" transform="matrix(1 0 0 -1 1397.44 855)" fill="white"/>
<circle cx="4" cy="4" r="4" transform="matrix(1 0 0 -1 109.365 666.016)" fill="white"/>
<circle cx="4" cy="4" r="4" transform="matrix(-0.866025 -0.5 -0.5 0.866025 1300.37 466)" fill="white"/>
<circle cx="4" cy="4" r="4" transform="matrix(1 0 0 -1 1351.44 691)" fill="white"/>
<ellipse cx="70.4424" cy="834.5" rx="2" ry="2.5" fill="white"/>
<ellipse cx="1253.42" cy="355.165" rx="2" ry="2.5" transform="rotate(-150 1253.42 355.165)" fill="white"/>
<circle cx="2.5" cy="2.5" r="2.5" transform="matrix(1 0 0 -1 1365.44 829)" fill="white"/>
<ellipse cx="4" cy="3.5" rx="4" ry="3.5" transform="matrix(1 0 0 -1 1121.44 582)" fill="white"/>
<circle cx="2.5" cy="2.5" r="2.5" transform="matrix(1 0 0 -1 1145.44 762)" fill="white"/>
<circle cx="2.5" cy="2.5" r="2.5" transform="matrix(1 0 0 -1 93.6162 924)" fill="white"/>
<circle cx="2.5" cy="2.5" r="2.5" transform="matrix(-0.866025 -0.5 -0.5 0.866025 1374.1 293.191)" fill="white"/>
<circle cx="2.5" cy="2.5" r="2.5" transform="matrix(0.757724 -0.652575 -0.652575 -0.757724 72.7051 330.052)" fill="white"/>
<ellipse cx="2.5" cy="2" rx="2.5" ry="2" transform="matrix(1 0 0 -1 1256.44 977)" fill="white"/>
<path d="M1241.13 732.737C1248.81 741.934 1261.17 747.58 1271.41 741.503C1281.03 735.797 1275.91 720.072 1266.6 721.118C1262.44 721.585 1260.4 726.812 1263.47 730.491C1269.23 737.388 1285.01 733.716 1289.36 725.992C1298.52 709.718 1276.79 697.298 1264.14 698.786M1264.14 698.786L1271.24 706.829M1264.14 698.786L1273.08 692.17" stroke="white" stroke-width="7.13979" stroke-linecap="round" stroke-linejoin="round"/>
<path d="M1296.96 888.571C1293.73 892.475 1286.24 898.407 1279.52 894.639C1268.24 888.305 1278.1 852.024 1290.23 856.667C1302.36 861.309 1277.9 902.019 1256.1 894.632C1235.34 887.594 1253.32 835.505 1267.35 841.955C1280.65 848.068 1254.12 886.951 1236.5 881.176C1218.94 875.423 1227.14 838.867 1252.9 824.078" stroke="white" stroke-width="7.13979" stroke-linecap="round" stroke-linejoin="round"/>
<path d="M641.365 1008.02L611.442 1004.04L641.365 997.878L635.309 979.766L649.558 991.357L656.683 966L656.683 993.169L676.987 986.286L663.807 999.689L694.442 1008.02L663.807 1008.02L672.357 1028.67L656.683 1017.44L649.558 1037L649.558 1014.18L632.46 1014.18L641.365 1008.02Z" fill="white"/>
<path d="M1142.42 56.636L1166.34 75.0481L1137.35 65.4199L1133.54 84.1335L1126.99 66.9702L1108.14 85.3679L1121.73 61.8394L1100.7 57.6475L1118.82 52.6303L1096.45 30.0973L1122.98 45.4149L1125.9 23.2585L1133.86 40.8205L1149.81 27.4423L1138.4 47.2063L1153.21 55.7556L1142.42 56.636Z" fill="white"/>
<path d="M432.537 66.4768L407.264 82.9844L425.918 58.7913L409.51 49.0191L427.871 48.504L416.722 24.641L434.452 45.2272L445.346 26.7617L444.105 45.5186L472.755 31.8399L449.542 51.8316L469.495 61.8981L450.29 63.6175L457.657 83.0887L442.764 65.7963L429.808 76.9545L432.537 66.4768Z" fill="white"/>
<path d="M486.764 806.018L469.44 812.691L488.763 814.147L491.321 824.552L495.266 812.548L510.123 814.068L498.38 805.576L514.42 795.081L494.91 799.877L492.431 789.797L488.497 799.04L476.157 797.936L486.764 806.018Z" fill="white"/>
<path d="M1189.75 270.545L1208.1 273.428L1192.09 262.505L1195.08 252.215L1185.66 260.638L1173.55 251.894L1179.47 265.12L1160.34 266.189L1179.63 271.79L1176.74 281.759L1184.77 275.721L1194.9 282.847L1189.75 270.545Z" fill="white"/>
<path d="M198.854 85.3559L190.081 101.718L205.673 90.2114L214.402 96.4263L209.557 84.7559L221.806 76.2127L207.366 77.4412L212.672 59.0212L201.018 75.3877L192.562 69.3669L195.613 78.9381L185.542 86.1546L198.854 85.3559Z" fill="white"/>
<path d="M194.192 994.037L213.824 977.752L219.484 998.185L221.286 978.845L234.154 986.016L226.679 974.371L240.545 968.696L227.846 966.119L241.989 948.925L226.714 959.047L221.576 945.828L214.868 960.133L204.447 950.204L210.769 963.533L188.836 966.067L210.965 972.111L194.192 994.037Z" fill="white"/>
<path d="M1393.35 80.0655L1368.21 84.3529L1373.52 63.8271L1362.29 79.6748L1354.73 67.0308L1355.38 80.8526L1340.54 78.8346L1350.25 87.4153L1329.4 95.2349L1347.69 94.1066L1345.53 108.123L1358.49 99.0891L1362.55 112.898L1363.74 98.1939L1384 106.966L1367.86 90.6673L1393.35 80.0655Z" fill="white"/>
<path d="M280.251 391.202L284.499 366.051L302.122 377.84L290.867 362.01L305.297 359.046L292.034 355.1L298.837 341.752L287.534 348.086L287.029 325.828L282.06 343.466L269.541 336.803L273.793 352.019L259.417 351.297L272.906 357.271L257.94 373.504L278.652 363.642L280.251 391.202Z" fill="white"/>
<ellipse cx="4" cy="3.5" rx="4" ry="3.5" transform="matrix(1.19249e-08 -1 -1 -1.19249e-08 434.616 953)" fill="white"/>
<ellipse cx="4" cy="3.5" rx="4" ry="3.5" transform="matrix(1.19249e-08 -1 -1 -1.19249e-08 90.4424 82.0002)" fill="white"/>
<ellipse cx="4" cy="3.5" rx="4" ry="3.5" transform="matrix(-0.5 0.866025 0.866025 0.5 981.442 67.0002)" fill="white"/>
<ellipse cx="4" cy="3.5" rx="4" ry="3.5" transform="matrix(-0.652575 -0.757724 -0.757724 0.652575 658.967 67.062)" fill="white"/>
<circle cx="4" cy="4" r="4" transform="matrix(1.19249e-08 -1 -1 -1.19249e-08 274.442 843)" fill="white"/>
<circle cx="4" cy="4" r="4" transform="matrix(-0.5 0.866025 0.866025 0.5 1181.44 126)" fill="white"/>
<circle cx="4" cy="4" r="4" transform="matrix(-0.652575 -0.757724 -0.757724 0.652575 227.725 231.062)" fill="white"/>
<circle cx="2.5" cy="2.5" r="2.5" transform="matrix(1.19249e-08 -1 -1 -1.19249e-08 414.616 939)" fill="white"/>
<circle cx="2.5" cy="2.5" r="2.5" transform="matrix(1.19249e-08 -1 -1 -1.19249e-08 70.4424 68.0002)" fill="white"/>
<circle cx="2.5" cy="2.5" r="2.5" transform="matrix(-0.5 0.866025 0.866025 0.5 361.942 422)" fill="white"/>
<circle cx="2.5" cy="2.5" r="2.5" transform="matrix(-0.652575 -0.757724 -0.757724 0.652575 310.494 91.7893)" fill="white"/>
<circle cx="2.5" cy="2.5" r="2.5" transform="matrix(1.19249e-08 -1 -1 -1.19249e-08 193.616 946)" fill="white"/>
<circle cx="2.5" cy="2.5" r="2.5" transform="matrix(-0.5 0.866025 0.866025 0.5 1346.94 137)" fill="white"/>
<circle cx="2.5" cy="2.5" r="2.5" transform="matrix(-0.652575 -0.757724 -0.757724 0.652575 125.494 263.789)" fill="white"/>
<path d="M374.179 1034.12C383.377 1026.44 389.022 1014.08 382.945 1003.84C377.239 994.227 361.514 999.337 362.56 1008.65C363.027 1012.81 368.254 1014.85 371.933 1011.78C378.83 1006.03 375.159 990.246 367.434 985.896C351.16 976.73 338.74 998.458 340.228 1011.12M340.228 1011.12L348.271 1004.01M340.228 1011.12L333.613 1002.17" stroke="white" stroke-width="7.13979" stroke-linecap="round" stroke-linejoin="round"/>
<path d="M1224.24 67.2741C1216.44 76.3672 1212.92 89.4967 1220.6 98.5868C1227.82 107.122 1242.49 99.4778 1239.91 90.4644C1238.76 86.4379 1233.27 85.2917 1230.15 88.9289C1224.3 95.7486 1230.53 110.703 1238.87 113.714C1256.44 120.058 1265.09 96.5728 1261.53 84.3368M1261.53 84.3368L1254.77 92.6739M1261.53 84.3368L1269.53 92.0623" stroke="white" stroke-width="7.13979" stroke-linecap="round" stroke-linejoin="round"/>
<path d="M337.983 144.324C339.943 132.506 336.152 119.453 324.866 115.661C314.269 112.101 305.689 126.234 312.561 132.61C315.63 135.459 320.922 133.593 321.706 128.866C323.175 120.003 310.095 110.442 301.404 112.186C283.091 115.861 287.859 140.431 297.247 149.05M297.247 149.05L298.706 138.419M297.247 149.05L286.397 146.59" stroke="white" stroke-width="7.13979" stroke-linecap="round" stroke-linejoin="round"/>
<path d="M1183.01 961.278C1186.92 964.512 1192.85 972.002 1189.08 978.715C1182.75 990.002 1146.47 980.134 1151.11 968.008C1155.75 955.882 1196.46 980.343 1189.07 1002.14C1182.04 1022.9 1129.95 1004.91 1136.4 990.887C1142.51 977.592 1181.39 1004.12 1175.62 1021.74C1169.86 1039.3 1133.31 1031.1 1118.52 1005.34" stroke="white" stroke-width="7.13979" stroke-linecap="round" stroke-linejoin="round"/>
</svg>
