<svg width="1087" height="1599" viewBox="0 0 1087 1599" fill="none" xmlns="http://www.w3.org/2000/svg">
<path d="M140.831 1412.24L306.165 1435.75L232.01 1553.11L333.7 1476.74L355.556 1570.68L379.121 1483.2L467.646 1525.45L424.261 1452.55L569.853 1445.46L481.078 1397.07L502.512 1301.35L396.178 1363.29L398.458 1269.08L361.658 1358.38L252.858 1263.2L320.935 1397.07L140.831 1412.24Z" fill="#58B0FF" fill-opacity="0.5"/>
<path d="M1011.92 1506.95L891.335 1451.74L882.518 1567.37L810.238 1445.94L708.434 1440.21L776.114 1339.47L678.433 1184.68L840.055 1267.96L899.599 1125.61L904.932 1261.58L992.502 1204.15L970.482 1297.48L1047.5 1302.98L978.945 1393.73L1011.92 1506.95Z" fill="#58B0FF" fill-opacity="0.5"/>
<path d="M286.659 467.223L230.098 362.336L161.16 440.467L202.953 285.806L105.205 255.02L208.281 219.447L222.069 55.5644L292.852 202.799L412.636 132.975L346.979 202.799L436.715 239.597L310.749 283.638L422.623 340.246L294.329 336.042L286.659 467.223Z" fill="#58B0FF" fill-opacity="0.5"/>
<path d="M152.022 666L167.444 695.172L186.721 675.724L179.01 712.676L205.998 728.234H174.191L157.805 807L152.022 728.234H125.998L152.022 712.676V666Z" fill="#58B0FF" fill-opacity="0.5"/>
<path d="M880.889 692.51L835.68 620.873L902.329 674.724L929.761 629.879L930.797 680.992L997.167 651.92L939.738 699.561L990.679 731.362L938.724 726.388L976.021 807.187L921.113 740.998L892.79 795.677L888.434 742.12L834.316 761.029L882.557 721.011L851.91 684.067L880.889 692.51Z" fill="#58B0FF" fill-opacity="0.5"/>
<path d="M996.617 379.977L951.442 354.671L982.726 398.743L964.945 422.763L997.738 409.855L1020.93 444.452L1018.25 404.123L1069.34 419.865L1024.3 386.527L1041.53 363.257L1014.68 371.271L995.075 342.816L996.617 379.977Z" fill="#58B0FF" fill-opacity="0.5"/>
<path d="M807.516 107.414L852.935 162.167L795.947 177.954L849.886 182.98L829.886 218.868L862.364 198.022L878.192 236.694L885.378 201.277L933.334 240.722L905.103 198.118L941.97 183.788L902.075 165.081L929.766 136.016L892.592 153.649L885.523 92.4755L868.668 154.195L807.516 107.414Z" fill="#58B0FF" fill-opacity="0.5"/>
<path d="M465.871 374.775V391.812H444.451L460.701 404.405L448.144 436.257L470.303 413.294L498.372 443.664L482.122 399.96H509.451L486.553 391.812L498.372 363.664L474.735 386.627L465.871 374.775Z" fill="#58B0FF" fill-opacity="0.5"/>
<path d="M317.083 1196L294.641 1105.31L244.877 1130.66L285.859 1078.98L239.998 1047.77L294.641 1053.62V960L324.889 1047.77L375.628 1015.59L338.55 1069.22L400.998 1090.68L338.55 1097.5L361.968 1130.66L324.889 1105.31L317.083 1196Z" fill="#58B0FF" fill-opacity="0.5"/>
<ellipse cx="199.498" cy="936" rx="10.5" ry="11" fill="#58B0FF" fill-opacity="0.5"/>
<circle cx="11" cy="11" r="11" transform="matrix(0.769646 -0.638471 -0.638471 -0.769646 1049.95 634.112)" fill="#58B0FF" fill-opacity="0.5"/>
<ellipse cx="11" cy="10.5" rx="11" ry="10.5" transform="matrix(1 0 0 -1 1032 1099)" fill="#58B0FF" fill-opacity="0.5"/>
<circle cx="11" cy="11" r="11" transform="matrix(0.769646 -0.638471 -0.638471 -0.769646 890.549 347.979)" fill="#58B0FF" fill-opacity="0.5"/>
<circle cx="232.498" cy="974.5" r="6.5" fill="#58B0FF" fill-opacity="0.5"/>
<circle cx="6.5" cy="6.5" r="6.5" transform="matrix(0.769646 -0.638471 -0.638471 -0.769646 1044.35 564.704)" fill="#58B0FF" fill-opacity="0.5"/>
<circle cx="6.5" cy="6.5" r="6.5" transform="matrix(1 0 0 -1 199.998 1191)" fill="#58B0FF" fill-opacity="0.5"/>
<circle cx="2.14685" cy="2.14685" r="2.14685" transform="matrix(1 0 0 -1 257.049 1580.39)" fill="#58B0FF" fill-opacity="0.5"/>
<circle cx="6.5" cy="6.5" r="6.5" transform="matrix(1 0 0 -1 669 1391)" fill="#58B0FF" fill-opacity="0.5"/>
<circle cx="6.5" cy="6.5" r="6.5" transform="matrix(1 0 0 -1 942.309 105.882)" fill="#58B0FF" fill-opacity="0.5"/>
<circle cx="6.5" cy="6.5" r="6.5" transform="matrix(1 0 0 -1 428.451 323.664)" fill="#58B0FF" fill-opacity="0.5"/>
</svg>
