<svg width="208" height="25" viewBox="0 0 208 25" fill="none" xmlns="http://www.w3.org/2000/svg">
<path d="M25.7584 5.3615C27.5669 5.3615 29.0646 6.15274 29.6863 6.74616L28.6407 8.01779C28.1321 7.56566 27.0017 6.94397 25.7584 6.94397C23.4694 6.94397 22.0565 8.52644 22.0565 10.6741C22.0565 12.8217 23.4129 14.4042 25.7866 14.4042C27.1713 14.4042 28.3581 13.6695 28.895 13.1608L29.8841 14.489C29.2624 15.1389 27.7082 16.0149 25.7866 16.0149C22.4239 16.0149 20.361 13.7542 20.361 10.7023C20.3328 7.62217 22.4521 5.3615 25.7584 5.3615Z" fill="white"/>
<path d="M36.1574 5.3615C39.2659 5.3615 41.5265 7.62217 41.5265 10.6741C41.5265 13.7542 39.2659 15.9866 36.1574 15.9866C33.049 15.9866 30.7884 13.726 30.7884 10.6741C30.7601 7.62217 33.0208 5.3615 36.1574 5.3615ZM36.1574 14.4042C38.2768 14.4042 39.831 12.8217 39.831 10.6741C39.831 8.52644 38.2768 6.94397 36.1574 6.94397C34.0381 6.94397 32.4839 8.52644 32.4839 10.6741C32.4839 12.8217 34.0381 14.4042 36.1574 14.4042Z" fill="white"/>
<path d="M52.2082 12.8217C52.2082 14.3194 51.2474 15.7606 48.7607 15.7606H43.3351V5.58757H48.4498C50.5127 5.58757 51.6995 6.8592 51.6995 8.30037C51.6995 9.11986 51.3322 9.85458 50.4279 10.448C51.3322 10.7871 52.2082 11.437 52.2082 12.8217ZM45.0023 7.1983V9.9111L48.2238 9.88284C49.3823 9.88284 49.9758 9.2329 49.9758 8.49818C49.9758 7.79172 49.4671 7.1983 48.4498 7.1983H45.0023ZM48.8737 14.1781C50.0605 14.1781 50.5127 13.5282 50.5127 12.8217C50.5127 12.0587 49.9758 11.437 48.902 11.437H45.0306V14.2064L48.8737 14.1781Z" fill="white"/>
<path d="M58.9054 10.5328L63.4267 15.7888H61.1943L57.4077 11.324H55.4861V15.7606H53.8189V5.58757H55.4861V9.79806H57.4077L61.0813 5.58757H63.3137L58.9054 10.5328Z" fill="white"/>
<path d="M68.5698 5.3615C71.6782 5.3615 73.9388 7.62217 73.9388 10.6741C73.9388 13.7542 71.6782 15.9866 68.5698 15.9866C65.4613 15.9866 63.2007 13.726 63.2007 10.6741C63.2007 7.62217 65.4613 5.3615 68.5698 5.3615ZM68.5698 14.4042C70.6891 14.4042 72.2433 12.8217 72.2433 10.6741C72.2433 8.52644 70.6891 6.94397 68.5698 6.94397C66.4504 6.94397 64.8962 8.52644 64.8962 10.6741C64.9244 12.8217 66.4786 14.4042 68.5698 14.4042Z" fill="white"/>
<path d="M85.2139 5.61583H86.8247V15.7888H85.1574V8.2156L81.8229 12.6804H80.8056L77.4711 8.2156V15.7888H75.7756V5.61583H77.3864L81.286 10.8436L85.2139 5.61583Z" fill="white"/>
<path d="M94.4827 9.76981C96.7151 9.76981 97.9302 11.0697 97.9302 12.7652C97.9302 14.4607 96.7151 15.7888 94.5957 15.7888H89.0571V5.61583H96.9694V7.22656H90.7526V9.79806H94.4827V9.76981ZM94.5392 14.1781C95.6978 14.1781 96.2347 13.5282 96.2347 12.7652C96.2347 12.0022 95.6978 11.3523 94.5392 11.3523H90.7526V14.1781H94.5392Z" fill="white"/>
<path d="M107.255 15.7888L106.153 13.2456H101.349L100.247 15.7888H98.3823L102.791 5.61583H104.627L109.036 15.7888H107.255ZM101.971 11.7196H105.475L103.751 7.65043L101.971 11.7196Z" fill="white"/>
<path d="M117.881 5.61583H119.548V15.7888H117.881V11.4088H112.003V15.7606H110.336V5.58757H112.003V9.79806H117.881V5.61583Z" fill="white"/>
<path d="M126.895 10.5328L131.416 15.7888H129.184L125.426 11.3523H123.504V15.7888H121.837V5.61583H123.504V9.82632H125.426L129.099 5.61583H131.332L126.895 10.5328Z" fill="white"/>
<path d="M0.18457 10.7023C0.18457 15.365 3.97119 19.1516 8.63382 19.1516C8.74685 19.1516 8.85988 19.1516 8.97291 19.1516V15.9301H8.63382C5.75146 15.9301 3.37776 13.5847 3.37776 10.6741C3.37776 7.79172 5.72321 5.41802 8.63382 5.41802H8.97291V2.25309C8.85988 2.25309 8.74685 2.25309 8.63382 2.25309C3.97119 2.22483 0.18457 6.01145 0.18457 10.7023Z" fill="white"/>
<path d="M10.3293 2.39438V6.80268H8.63382C6.48618 6.80268 4.73416 8.5547 4.73416 10.7023C4.73416 12.85 6.48618 14.602 8.63382 14.602H10.3293V19.0103C14.2007 18.1908 17.1113 14.7715 17.1113 10.7023C17.1113 6.60487 14.2007 3.18561 10.3293 2.39438Z" fill="white"/>
<mask id="path-2-outside-1_59_72" maskUnits="userSpaceOnUse" x="133.882" y="-0.96382" width="74.7594" height="25.5751" fill="black">
<rect fill="white" x="133.882" y="-0.96382" width="74.7594" height="25.5751"/>
<path fill-rule="evenodd" clip-rule="evenodd" d="M149.042 1.79582L138.423 3.83882C142.407 6.95941 144.018 10.7753 144.127 13.8196C144.186 15.4611 143.807 16.9193 143.073 17.9023C142.318 18.9132 141.173 19.4189 139.877 19.0141C137.491 18.2684 136.707 16.132 136.996 14.2409C137.278 12.393 138.627 10.5467 140.719 10.4174L141.294 10.3819L141.365 11.5322L140.79 11.5678C139.421 11.6524 138.366 12.9009 138.135 14.4148C137.911 15.8855 138.505 17.3779 140.221 17.914C140.976 18.1501 141.638 17.8972 142.149 17.2127C142.681 16.5002 143.028 15.326 142.975 13.8607C142.871 10.9543 141.195 7.06102 136.689 3.99989L135.541 3.21964L148.824 0.664034L149.042 1.79582ZM167.046 1.16968L166.65 12.4725L168.521 12.538L168.48 13.6898L157.889 13.319L157.929 12.1672L159.485 12.2216L167.046 1.16968ZM160.849 12.2694L165.498 12.4321L165.755 5.09775L160.849 12.2694ZM205.642 5.36649C206.318 5.92599 206.858 6.69787 207.082 7.55264L207.222 8.08721L200.654 10.1033C200.649 10.2199 200.645 10.3392 200.642 10.4611C200.662 11.6667 201.104 12.7321 201.899 13.2097C202.662 13.6681 204.012 13.7329 206.211 12.3374L206.698 12.0286L207.315 13.0017L206.829 13.3105C204.482 14.7997 202.624 14.9894 201.306 14.1978C200.022 13.4268 199.51 11.8721 199.49 10.4675L199.489 10.4608L197.896 10.9501L197.558 9.84826L199.563 9.23265C199.728 7.63407 200.148 6.46288 200.76 5.6682C201.437 4.7896 202.324 4.4056 203.23 4.41592C204.113 4.42597 204.967 4.80775 205.642 5.36649ZM200.771 8.8619C200.948 7.66902 201.286 6.87449 201.673 6.37141C202.131 5.77707 202.676 5.56223 203.217 5.56838C203.781 5.57481 204.388 5.82483 204.907 6.25445C205.272 6.55578 205.571 6.92828 205.77 7.32711L200.771 8.8619ZM196.68 5.83838C197.356 6.39788 197.896 7.16976 198.119 8.02453L198.259 8.5591L191.692 10.5752C191.687 10.6918 191.683 10.811 191.68 10.933C191.7 12.1386 192.142 13.204 192.937 13.6816C193.7 14.14 195.05 14.2048 197.249 12.8093L197.735 12.5005L198.353 13.4736L197.866 13.7824C195.52 15.2716 193.662 15.4613 192.344 14.6697C191.06 13.8987 190.547 12.344 190.527 10.9394L190.527 10.9327L188.933 11.422L188.595 10.3202L190.601 9.70454C190.765 8.10596 191.186 6.93478 191.798 6.14009C192.475 5.2615 193.361 4.87749 194.268 4.88781C195.15 4.89786 196.005 5.27964 196.68 5.83838ZM191.808 9.33379L196.808 7.799C196.609 7.40017 196.309 7.02767 195.945 6.72635C195.426 6.29672 194.818 6.0467 194.254 6.04028C193.714 6.03412 193.169 6.24896 192.711 6.8433C192.324 7.34638 191.986 8.14091 191.808 9.33379ZM184.196 5.00249L183.122 13.934L185.495 13.5415L186.626 5.00504L187.768 5.15635L186.628 13.7634L187.004 13.2315L187.945 13.8959L185.398 17.5076L184.456 16.8432L186.022 14.6225L182.559 15.1955L177.87 16.0787L178.978 5.34632L180.125 5.46469L179.176 14.66L181.937 14.1398L183.052 4.86489L184.196 5.00249ZM152.787 4.69112L153.934 4.60667C154.228 6.71105 154.583 9.6897 154.657 12.5806C155.096 12.4554 155.547 12.3614 156.005 12.3045L156.577 12.2334L156.719 13.3771L156.147 13.4482C155.647 13.5103 155.153 13.6242 154.671 13.7812C154.663 15.8981 154.474 17.9438 153.935 19.4827C153.647 20.3044 153.243 21.0286 152.669 21.5345C152.078 22.0555 151.34 22.3148 150.47 22.2461C149.168 22.1431 148.239 21.6273 147.847 20.7083C147.474 19.8369 147.676 18.7981 148.136 17.8388C149.021 15.9959 151.053 14.024 153.513 12.9848C153.487 11.4825 153.379 9.93843 153.239 8.49611C153.18 8.64909 153.116 8.80126 153.048 8.95188C152.361 10.4716 151.162 11.906 149.179 12.3343C148.188 12.5484 147.368 12.3984 146.766 11.8817C146.189 11.3865 145.92 10.6429 145.807 9.89764C145.582 8.40824 145.927 6.55093 146.293 5.31522L146.457 4.7627L147.562 5.09017L147.398 5.64269C147.05 6.81797 146.759 8.48305 146.947 9.7251C147.041 10.3456 147.24 10.77 147.517 11.0072C147.768 11.223 148.185 11.37 148.936 11.2077C150.438 10.8833 151.4 9.79921 151.998 8.47684C152.599 7.14825 152.795 5.65164 152.787 4.69112ZM153.513 14.2496C151.499 15.2262 149.878 16.8743 149.175 18.3375C148.775 19.1707 148.725 19.8302 148.907 20.2556C149.068 20.6334 149.499 21.0131 150.561 21.0971C151.124 21.1416 151.553 20.9818 151.907 20.6701C152.277 20.3432 152.595 19.821 152.847 19.1014C153.287 17.8477 153.48 16.1381 153.513 14.2496ZM170.265 6.58982L170.049 7.12394C169.685 8.02112 169.335 9.29715 169.387 10.2687C169.413 10.754 169.534 11.0719 169.707 11.2515C169.856 11.4073 170.133 11.5513 170.715 11.4835C171.878 11.3479 172.695 10.5975 173.259 9.61639C173.826 8.62937 174.092 7.47763 174.158 6.72999L175.308 6.75672C175.378 8.40888 175.429 10.7311 175.278 12.9844C175.593 12.9333 175.912 12.902 176.235 12.8933L176.811 12.8778L176.842 14.0299L176.266 14.0454C175.902 14.0553 175.537 14.1 175.178 14.175C175.007 15.8229 174.7 17.4081 174.156 18.5818C173.86 19.2199 173.474 19.7817 172.959 20.1541C172.425 20.54 171.789 20.6956 171.075 20.5689C170.028 20.3831 169.283 19.8849 169.025 19.0701C168.782 18.3046 169.041 17.461 169.486 16.725C170.333 15.3259 172.083 13.9222 174.102 13.2699C174.18 12.2674 174.214 11.2385 174.222 10.2533C173.547 11.3978 172.471 12.4392 170.849 12.6283C170.023 12.7245 169.344 12.5386 168.875 12.0493C168.428 11.5839 168.269 10.9416 168.236 10.3304C168.17 9.10901 168.593 7.64686 168.981 6.69126L169.197 6.15714L170.265 6.58982ZM173.977 14.5398C172.411 15.1653 171.101 16.2825 170.472 17.3218C170.099 17.938 170.027 18.4188 170.123 18.7218C170.204 18.9757 170.467 19.2904 171.276 19.4341C171.687 19.507 172.006 19.4206 172.284 19.2201C172.58 19.0062 172.86 18.6371 173.11 18.0972C173.528 17.1966 173.804 15.9471 173.977 14.5398Z"/>
</mask>
<path fill-rule="evenodd" clip-rule="evenodd" d="M149.042 1.79582L138.423 3.83882C142.407 6.95941 144.018 10.7753 144.127 13.8196C144.186 15.4611 143.807 16.9193 143.073 17.9023C142.318 18.9132 141.173 19.4189 139.877 19.0141C137.491 18.2684 136.707 16.132 136.996 14.2409C137.278 12.393 138.627 10.5467 140.719 10.4174L141.294 10.3819L141.365 11.5322L140.79 11.5678C139.421 11.6524 138.366 12.9009 138.135 14.4148C137.911 15.8855 138.505 17.3779 140.221 17.914C140.976 18.1501 141.638 17.8972 142.149 17.2127C142.681 16.5002 143.028 15.326 142.975 13.8607C142.871 10.9543 141.195 7.06102 136.689 3.99989L135.541 3.21964L148.824 0.664034L149.042 1.79582ZM167.046 1.16968L166.65 12.4725L168.521 12.538L168.48 13.6898L157.889 13.319L157.929 12.1672L159.485 12.2216L167.046 1.16968ZM160.849 12.2694L165.498 12.4321L165.755 5.09775L160.849 12.2694ZM205.642 5.36649C206.318 5.92599 206.858 6.69787 207.082 7.55264L207.222 8.08721L200.654 10.1033C200.649 10.2199 200.645 10.3392 200.642 10.4611C200.662 11.6667 201.104 12.7321 201.899 13.2097C202.662 13.6681 204.012 13.7329 206.211 12.3374L206.698 12.0286L207.315 13.0017L206.829 13.3105C204.482 14.7997 202.624 14.9894 201.306 14.1978C200.022 13.4268 199.51 11.8721 199.49 10.4675L199.489 10.4608L197.896 10.9501L197.558 9.84826L199.563 9.23265C199.728 7.63407 200.148 6.46288 200.76 5.6682C201.437 4.7896 202.324 4.4056 203.23 4.41592C204.113 4.42597 204.967 4.80775 205.642 5.36649ZM200.771 8.8619C200.948 7.66902 201.286 6.87449 201.673 6.37141C202.131 5.77707 202.676 5.56223 203.217 5.56838C203.781 5.57481 204.388 5.82483 204.907 6.25445C205.272 6.55578 205.571 6.92828 205.77 7.32711L200.771 8.8619ZM196.68 5.83838C197.356 6.39788 197.896 7.16976 198.119 8.02453L198.259 8.5591L191.692 10.5752C191.687 10.6918 191.683 10.811 191.68 10.933C191.7 12.1386 192.142 13.204 192.937 13.6816C193.7 14.14 195.05 14.2048 197.249 12.8093L197.735 12.5005L198.353 13.4736L197.866 13.7824C195.52 15.2716 193.662 15.4613 192.344 14.6697C191.06 13.8987 190.547 12.344 190.527 10.9394L190.527 10.9327L188.933 11.422L188.595 10.3202L190.601 9.70454C190.765 8.10596 191.186 6.93478 191.798 6.14009C192.475 5.2615 193.361 4.87749 194.268 4.88781C195.15 4.89786 196.005 5.27964 196.68 5.83838ZM191.808 9.33379L196.808 7.799C196.609 7.40017 196.309 7.02767 195.945 6.72635C195.426 6.29672 194.818 6.0467 194.254 6.04028C193.714 6.03412 193.169 6.24896 192.711 6.8433C192.324 7.34638 191.986 8.14091 191.808 9.33379ZM184.196 5.00249L183.122 13.934L185.495 13.5415L186.626 5.00504L187.768 5.15635L186.628 13.7634L187.004 13.2315L187.945 13.8959L185.398 17.5076L184.456 16.8432L186.022 14.6225L182.559 15.1955L177.87 16.0787L178.978 5.34632L180.125 5.46469L179.176 14.66L181.937 14.1398L183.052 4.86489L184.196 5.00249ZM152.787 4.69112L153.934 4.60667C154.228 6.71105 154.583 9.6897 154.657 12.5806C155.096 12.4554 155.547 12.3614 156.005 12.3045L156.577 12.2334L156.719 13.3771L156.147 13.4482C155.647 13.5103 155.153 13.6242 154.671 13.7812C154.663 15.8981 154.474 17.9438 153.935 19.4827C153.647 20.3044 153.243 21.0286 152.669 21.5345C152.078 22.0555 151.34 22.3148 150.47 22.2461C149.168 22.1431 148.239 21.6273 147.847 20.7083C147.474 19.8369 147.676 18.7981 148.136 17.8388C149.021 15.9959 151.053 14.024 153.513 12.9848C153.487 11.4825 153.379 9.93843 153.239 8.49611C153.18 8.64909 153.116 8.80126 153.048 8.95188C152.361 10.4716 151.162 11.906 149.179 12.3343C148.188 12.5484 147.368 12.3984 146.766 11.8817C146.189 11.3865 145.92 10.6429 145.807 9.89764C145.582 8.40824 145.927 6.55093 146.293 5.31522L146.457 4.7627L147.562 5.09017L147.398 5.64269C147.05 6.81797 146.759 8.48305 146.947 9.7251C147.041 10.3456 147.24 10.77 147.517 11.0072C147.768 11.223 148.185 11.37 148.936 11.2077C150.438 10.8833 151.4 9.79921 151.998 8.47684C152.599 7.14825 152.795 5.65164 152.787 4.69112ZM153.513 14.2496C151.499 15.2262 149.878 16.8743 149.175 18.3375C148.775 19.1707 148.725 19.8302 148.907 20.2556C149.068 20.6334 149.499 21.0131 150.561 21.0971C151.124 21.1416 151.553 20.9818 151.907 20.6701C152.277 20.3432 152.595 19.821 152.847 19.1014C153.287 17.8477 153.48 16.1381 153.513 14.2496ZM170.265 6.58982L170.049 7.12394C169.685 8.02112 169.335 9.29715 169.387 10.2687C169.413 10.754 169.534 11.0719 169.707 11.2515C169.856 11.4073 170.133 11.5513 170.715 11.4835C171.878 11.3479 172.695 10.5975 173.259 9.61639C173.826 8.62937 174.092 7.47763 174.158 6.72999L175.308 6.75672C175.378 8.40888 175.429 10.7311 175.278 12.9844C175.593 12.9333 175.912 12.902 176.235 12.8933L176.811 12.8778L176.842 14.0299L176.266 14.0454C175.902 14.0553 175.537 14.1 175.178 14.175C175.007 15.8229 174.7 17.4081 174.156 18.5818C173.86 19.2199 173.474 19.7817 172.959 20.1541C172.425 20.54 171.789 20.6956 171.075 20.5689C170.028 20.3831 169.283 19.8849 169.025 19.0701C168.782 18.3046 169.041 17.461 169.486 16.725C170.333 15.3259 172.083 13.9222 174.102 13.2699C174.18 12.2674 174.214 11.2385 174.222 10.2533C173.547 11.3978 172.471 12.4392 170.849 12.6283C170.023 12.7245 169.344 12.5386 168.875 12.0493C168.428 11.5839 168.269 10.9416 168.236 10.3304C168.17 9.10901 168.593 7.64686 168.981 6.69126L169.197 6.15714L170.265 6.58982ZM173.977 14.5398C172.411 15.1653 171.101 16.2825 170.472 17.3218C170.099 17.938 170.027 18.4188 170.123 18.7218C170.204 18.9757 170.467 19.2904 171.276 19.4341C171.687 19.507 172.006 19.4206 172.284 19.2201C172.58 19.0062 172.86 18.6371 173.11 18.0972C173.528 17.1966 173.804 15.9471 173.977 14.5398Z" fill="white"/>
<path fill-rule="evenodd" clip-rule="evenodd" d="M149.042 1.79582L138.423 3.83882C142.407 6.95941 144.018 10.7753 144.127 13.8196C144.186 15.4611 143.807 16.9193 143.073 17.9023C142.318 18.9132 141.173 19.4189 139.877 19.0141C137.491 18.2684 136.707 16.132 136.996 14.2409C137.278 12.393 138.627 10.5467 140.719 10.4174L141.294 10.3819L141.365 11.5322L140.79 11.5678C139.421 11.6524 138.366 12.9009 138.135 14.4148C137.911 15.8855 138.505 17.3779 140.221 17.914C140.976 18.1501 141.638 17.8972 142.149 17.2127C142.681 16.5002 143.028 15.326 142.975 13.8607C142.871 10.9543 141.195 7.06102 136.689 3.99989L135.541 3.21964L148.824 0.664034L149.042 1.79582ZM167.046 1.16968L166.65 12.4725L168.521 12.538L168.48 13.6898L157.889 13.319L157.929 12.1672L159.485 12.2216L167.046 1.16968ZM160.849 12.2694L165.498 12.4321L165.755 5.09775L160.849 12.2694ZM205.642 5.36649C206.318 5.92599 206.858 6.69787 207.082 7.55264L207.222 8.08721L200.654 10.1033C200.649 10.2199 200.645 10.3392 200.642 10.4611C200.662 11.6667 201.104 12.7321 201.899 13.2097C202.662 13.6681 204.012 13.7329 206.211 12.3374L206.698 12.0286L207.315 13.0017L206.829 13.3105C204.482 14.7997 202.624 14.9894 201.306 14.1978C200.022 13.4268 199.51 11.8721 199.49 10.4675L199.489 10.4608L197.896 10.9501L197.558 9.84826L199.563 9.23265C199.728 7.63407 200.148 6.46288 200.76 5.6682C201.437 4.7896 202.324 4.4056 203.23 4.41592C204.113 4.42597 204.967 4.80775 205.642 5.36649ZM200.771 8.8619C200.948 7.66902 201.286 6.87449 201.673 6.37141C202.131 5.77707 202.676 5.56223 203.217 5.56838C203.781 5.57481 204.388 5.82483 204.907 6.25445C205.272 6.55578 205.571 6.92828 205.77 7.32711L200.771 8.8619ZM196.68 5.83838C197.356 6.39788 197.896 7.16976 198.119 8.02453L198.259 8.5591L191.692 10.5752C191.687 10.6918 191.683 10.811 191.68 10.933C191.7 12.1386 192.142 13.204 192.937 13.6816C193.7 14.14 195.05 14.2048 197.249 12.8093L197.735 12.5005L198.353 13.4736L197.866 13.7824C195.52 15.2716 193.662 15.4613 192.344 14.6697C191.06 13.8987 190.547 12.344 190.527 10.9394L190.527 10.9327L188.933 11.422L188.595 10.3202L190.601 9.70454C190.765 8.10596 191.186 6.93478 191.798 6.14009C192.475 5.2615 193.361 4.87749 194.268 4.88781C195.15 4.89786 196.005 5.27964 196.68 5.83838ZM191.808 9.33379L196.808 7.799C196.609 7.40017 196.309 7.02767 195.945 6.72635C195.426 6.29672 194.818 6.0467 194.254 6.04028C193.714 6.03412 193.169 6.24896 192.711 6.8433C192.324 7.34638 191.986 8.14091 191.808 9.33379ZM184.196 5.00249L183.122 13.934L185.495 13.5415L186.626 5.00504L187.768 5.15635L186.628 13.7634L187.004 13.2315L187.945 13.8959L185.398 17.5076L184.456 16.8432L186.022 14.6225L182.559 15.1955L177.87 16.0787L178.978 5.34632L180.125 5.46469L179.176 14.66L181.937 14.1398L183.052 4.86489L184.196 5.00249ZM152.787 4.69112L153.934 4.60667C154.228 6.71105 154.583 9.6897 154.657 12.5806C155.096 12.4554 155.547 12.3614 156.005 12.3045L156.577 12.2334L156.719 13.3771L156.147 13.4482C155.647 13.5103 155.153 13.6242 154.671 13.7812C154.663 15.8981 154.474 17.9438 153.935 19.4827C153.647 20.3044 153.243 21.0286 152.669 21.5345C152.078 22.0555 151.34 22.3148 150.47 22.2461C149.168 22.1431 148.239 21.6273 147.847 20.7083C147.474 19.8369 147.676 18.7981 148.136 17.8388C149.021 15.9959 151.053 14.024 153.513 12.9848C153.487 11.4825 153.379 9.93843 153.239 8.49611C153.18 8.64909 153.116 8.80126 153.048 8.95188C152.361 10.4716 151.162 11.906 149.179 12.3343C148.188 12.5484 147.368 12.3984 146.766 11.8817C146.189 11.3865 145.92 10.6429 145.807 9.89764C145.582 8.40824 145.927 6.55093 146.293 5.31522L146.457 4.7627L147.562 5.09017L147.398 5.64269C147.05 6.81797 146.759 8.48305 146.947 9.7251C147.041 10.3456 147.24 10.77 147.517 11.0072C147.768 11.223 148.185 11.37 148.936 11.2077C150.438 10.8833 151.4 9.79921 151.998 8.47684C152.599 7.14825 152.795 5.65164 152.787 4.69112ZM153.513 14.2496C151.499 15.2262 149.878 16.8743 149.175 18.3375C148.775 19.1707 148.725 19.8302 148.907 20.2556C149.068 20.6334 149.499 21.0131 150.561 21.0971C151.124 21.1416 151.553 20.9818 151.907 20.6701C152.277 20.3432 152.595 19.821 152.847 19.1014C153.287 17.8477 153.48 16.1381 153.513 14.2496ZM170.265 6.58982L170.049 7.12394C169.685 8.02112 169.335 9.29715 169.387 10.2687C169.413 10.754 169.534 11.0719 169.707 11.2515C169.856 11.4073 170.133 11.5513 170.715 11.4835C171.878 11.3479 172.695 10.5975 173.259 9.61639C173.826 8.62937 174.092 7.47763 174.158 6.72999L175.308 6.75672C175.378 8.40888 175.429 10.7311 175.278 12.9844C175.593 12.9333 175.912 12.902 176.235 12.8933L176.811 12.8778L176.842 14.0299L176.266 14.0454C175.902 14.0553 175.537 14.1 175.178 14.175C175.007 15.8229 174.7 17.4081 174.156 18.5818C173.86 19.2199 173.474 19.7817 172.959 20.1541C172.425 20.54 171.789 20.6956 171.075 20.5689C170.028 20.3831 169.283 19.8849 169.025 19.0701C168.782 18.3046 169.041 17.461 169.486 16.725C170.333 15.3259 172.083 13.9222 174.102 13.2699C174.18 12.2674 174.214 11.2385 174.222 10.2533C173.547 11.3978 172.471 12.4392 170.849 12.6283C170.023 12.7245 169.344 12.5386 168.875 12.0493C168.428 11.5839 168.269 10.9416 168.236 10.3304C168.17 9.10901 168.593 7.64686 168.981 6.69126L169.197 6.15714L170.265 6.58982ZM173.977 14.5398C172.411 15.1653 171.101 16.2825 170.472 17.3218C170.099 17.938 170.027 18.4188 170.123 18.7218C170.204 18.9757 170.467 19.2904 171.276 19.4341C171.687 19.507 172.006 19.4206 172.284 19.2201C172.58 19.0062 172.86 18.6371 173.11 18.0972C173.528 17.1966 173.804 15.9471 173.977 14.5398Z" stroke="white" stroke-width="0.515025" stroke-linecap="square" mask="url(#path-2-outside-1_59_72)"/>
</svg>
